<svg width="29" height="28" viewBox="0 0 29 28" fill="none" xmlns="http://www.w3.org/2000/svg">
<g id="Frame" opacity="0.9">
<path id="Vector" d="M12.6235 8.76545C12.6235 7.75608 13.4731 6 14.4985 6C15.5532 6 16.3735 7.75608 16.3735 8.76545V12.2068L21.5269 15.1729C21.8169 15.3411 21.9985 15.654 21.9985 15.9934V17.6521C21.9985 17.9649 21.6997 18.1922 21.4009 18.1066L16.3735 16.6575V19.6944L18.061 20.9694C18.1782 21.0586 18.2485 21.1985 18.2485 21.3472V22.5859C18.2485 22.8145 18.064 23 17.812 23C17.8003 23 17.7622 22.9946 17.7241 22.9841L14.4985 22.0556L11.2729 22.9841C11.2349 22.9946 11.1968 23 11.1587 23C10.9331 23 10.7485 22.8145 10.7485 22.5859V21.3472C10.7485 21.1985 10.8188 21.0586 10.936 20.9694L12.6235 19.6944V16.6575L7.59619 18.1066C7.29648 18.1922 6.99854 17.9649 6.99854 17.6521V15.9934C6.99854 15.654 7.1788 15.3411 7.4708 15.1729L12.6235 12.2068V8.76545Z" fill="white"/>
</g>
</svg>
