<svg width="24" height="24" viewBox="0 0 24 24" fill="none" xmlns="http://www.w3.org/2000/svg">
<path d="M3.96963 8.45615C2.02506 11.8309 3.26289 16.9495 5.41237 20.0733C6.48711 21.6248 7.57439 23.0006 9.05895 23.0006H9.14259C9.72414 22.9598 10.2922 22.8064 10.8153 22.549C11.4401 22.2414 12.1262 22.0785 12.8226 22.0723C13.4864 22.0782 14.14 22.2355 14.7337 22.5323C15.3017 22.8129 15.9277 22.9561 16.5612 22.9505C18.2339 22.9212 19.2669 21.4157 20.1743 20.0901C20.8547 19.0895 21.3884 17.9967 21.7593 16.845C21.7737 16.801 21.7715 16.7532 21.753 16.7108C21.7345 16.6683 21.701 16.6342 21.6589 16.615C20.7944 16.248 20.0564 15.6357 19.5362 14.8538C19.0159 14.072 18.7362 13.1548 18.7316 12.2156C18.7429 11.3855 18.9629 10.5715 19.3715 9.84874C19.78 9.12597 20.3639 8.51763 21.0692 8.07978C21.0903 8.06624 21.1085 8.04862 21.1227 8.02796C21.1369 8.00731 21.1468 7.98403 21.1518 7.95949C21.1569 7.93495 21.157 7.90964 21.1522 7.88506C21.1473 7.86047 21.1376 7.83711 21.1236 7.81632C20.6404 7.12288 20.0021 6.55166 19.2594 6.14805C18.5168 5.74443 17.6903 5.51953 16.8456 5.49121C16.7243 5.49121 16.5988 5.49121 16.4734 5.49121C15.5446 5.54489 14.634 5.77182 13.7886 6.16031C13.382 6.35504 12.9474 6.48486 12.5006 6.54504C12.0389 6.48979 11.5895 6.35837 11.1708 6.15613C10.4449 5.80244 9.65901 5.58824 8.85404 5.52467H8.79549C7.80689 5.55696 6.84333 5.84373 5.99795 6.35726C5.15257 6.87078 4.45396 7.59371 3.96963 8.45615Z" fill="url(#paint0_linear_1412_15452)"/>
<path d="M16.8915 3.82839e-05C15.5508 0.126161 14.3098 0.762399 13.4248 1.77733C12.7013 2.6137 11.9946 4.01462 12.1702 5.42391C12.1758 5.46661 12.1959 5.50609 12.2271 5.53577C12.2583 5.56546 12.2987 5.58354 12.3417 5.587H12.5842C13.2178 5.55816 13.8378 5.39394 14.4027 5.10541C14.9675 4.81688 15.4639 4.41071 15.8586 3.91426C16.7471 2.87041 17.1861 1.51723 17.0797 0.150585C17.0709 0.107439 17.0473 0.0687446 17.0129 0.0412369C16.9785 0.0137292 16.9356 -0.000849553 16.8915 3.82839e-05Z" fill="url(#paint1_linear_1412_15452)"/>
<defs>
<linearGradient id="paint0_linear_1412_15452" x1="2.23752" y1="3.69618" x2="24.5051" y2="22.0543" gradientUnits="userSpaceOnUse">
<stop stop-color="#FFF3CA"/>
<stop offset="1" stop-color="#BB985B"/>
</linearGradient>
<linearGradient id="paint1_linear_1412_15452" x1="11.9419" y1="-0.572768" x2="18.6795" y2="4.02054" gradientUnits="userSpaceOnUse">
<stop stop-color="#FFF3CA"/>
<stop offset="1" stop-color="#BB985B"/>
</linearGradient>
</defs>
</svg>
