<svg width="29" height="28" viewBox="0 0 29 28" fill="none" xmlns="http://www.w3.org/2000/svg">
<path d="M14.249 7.27417C12.924 7.27417 11.6288 7.66707 10.5271 8.40319C9.42546 9.13931 8.5668 10.1856 8.05976 11.4097C7.55271 12.6338 7.42004 13.9808 7.67853 15.2803C7.93702 16.5799 8.57506 17.7735 9.51196 18.7105C10.4489 19.6474 11.6426 20.2854 12.9421 20.5439C14.2416 20.8024 15.5886 20.6697 16.8127 20.1627C18.0368 19.6556 19.0831 18.797 19.8192 17.6953C20.5553 16.5936 20.9482 15.2984 20.9482 13.9734C20.9482 12.1966 20.2424 10.4927 18.9861 9.23633C17.7297 7.97998 16.0258 7.27417 14.249 7.27417ZM16.5067 16.231C16.3925 16.3452 16.2376 16.4093 16.0761 16.4093C15.9146 16.4093 15.7597 16.3452 15.6455 16.231L13.8184 14.404C13.7042 14.2898 13.64 14.1349 13.64 13.9734V10.3193C13.64 10.1577 13.7042 10.0028 13.8184 9.88863C13.9326 9.77441 14.0875 9.71025 14.249 9.71025C14.4105 9.71025 14.5655 9.77441 14.6797 9.88863C14.7939 10.0028 14.858 10.1577 14.858 10.3193V13.7213L16.5067 15.3699C16.6208 15.4841 16.685 15.639 16.685 15.8004C16.685 15.9619 16.6208 16.1168 16.5067 16.231Z" fill="white"/>
</svg>
