<svg width="308" height="30" viewBox="0 0 308 30" fill="none" xmlns="http://www.w3.org/2000/svg">
<path d="M88.3533 18.9395C88.1987 18.7835 88.1115 18.573 88.1106 18.3534C88.1113 18.1322 88.1994 17.9203 88.3558 17.7639C88.5122 17.6075 88.7242 17.5193 88.9453 17.5187L91.4554 17.5187C91.6755 17.5188 91.8934 17.4756 92.0967 17.3914C92.3 17.3073 92.4848 17.1839 92.6404 17.0283C92.796 16.8727 92.9194 16.6879 93.0035 16.4846C93.0877 16.2813 93.1309 16.0634 93.1308 15.8433L93.1308 14.162C93.1184 13.7216 92.9379 13.3027 92.6263 12.9911C92.3148 12.6796 91.8958 12.4991 91.4554 12.4867L88.9453 12.4867C88.7411 12.464 88.5523 12.3669 88.4149 12.214C88.2776 12.0611 88.2013 11.8631 88.2005 11.6575C88.1998 11.452 88.2747 11.2534 88.411 11.0995C88.5472 10.9456 88.7353 10.8473 88.9394 10.8231L91.4495 10.8231C92.3316 10.8439 93.1719 11.2036 93.7958 11.8276C94.4198 12.4515 94.7795 13.2917 94.8003 14.1739L94.8003 15.8433C94.8005 16.2834 94.714 16.7192 94.5457 17.1259C94.3774 17.5325 94.1306 17.902 93.8194 18.2132C93.5082 18.5244 93.1387 18.7712 92.7321 18.9395C92.3254 19.1078 91.8896 19.1943 91.4495 19.1941L88.9394 19.1822C88.7198 19.1813 88.5093 19.0941 88.3533 18.9395Z" fill="url(#paint0_linear_3664_2780)"/>
<path d="M78.2041 18.1558C77.8928 17.845 77.6458 17.4759 77.4771 17.0696C77.3085 16.6632 77.2216 16.2277 77.2214 15.7878L77.2214 14.1183C77.2211 13.6782 77.3076 13.2424 77.4759 12.8358C77.6442 12.4291 77.891 12.0597 78.2022 11.7485C78.5134 11.4373 78.8829 11.1905 79.2895 11.0222C79.6962 10.8539 80.132 10.7674 80.5721 10.7676L83.0881 10.7735C83.2922 10.7977 83.4803 10.896 83.6166 11.0499C83.7528 11.2038 83.8277 11.4024 83.827 11.6079C83.8263 11.8135 83.75 12.0115 83.6126 12.1644C83.4753 12.3173 83.2865 12.4144 83.0822 12.437L80.5721 12.437C80.352 12.4369 80.1341 12.4802 79.9308 12.5643C79.7275 12.6485 79.5428 12.7719 79.3872 12.9275C79.2316 13.0831 79.1082 13.2678 79.024 13.4711C78.9399 13.6745 78.8966 13.8924 78.8967 14.1124L78.8967 15.7937C78.9091 16.2341 79.0896 16.6531 79.4012 16.9646C79.7127 17.2762 80.1317 17.4567 80.5721 17.4691L83.0822 17.4691C83.1994 17.4552 83.3181 17.4663 83.4307 17.5015C83.5433 17.5368 83.6472 17.5955 83.7356 17.6737C83.8239 17.7519 83.8947 17.8479 83.9433 17.9555C83.992 18.063 84.0173 18.1795 84.0177 18.2975C84.0181 18.4155 83.9936 18.5323 83.9458 18.6401C83.8979 18.748 83.8278 18.8445 83.74 18.9233C83.6522 19.0022 83.5488 19.0616 83.4364 19.0976C83.3241 19.1337 83.2054 19.1456 83.0881 19.1326H80.578C80.1375 19.1339 79.7011 19.0483 79.2937 18.8807C78.8864 18.7131 78.5161 18.4667 78.2041 18.1558Z" fill="url(#paint1_linear_3664_2780)"/>
<path d="M81.6556 15.569C81.5772 15.4915 81.5149 15.3993 81.4723 15.2978C81.4296 15.1962 81.4074 15.0872 81.4069 14.977C81.4065 14.8665 81.4279 14.7569 81.47 14.6547C81.5121 14.5525 81.574 14.4597 81.6522 14.3815C81.7303 14.3034 81.8232 14.2415 81.9254 14.1994C82.0275 14.1573 82.1371 14.1359 82.2476 14.1363L89.7838 14.1422C90.005 14.1429 90.2169 14.2311 90.3733 14.3875C90.5297 14.5439 90.6179 14.7558 90.6185 14.977C90.619 15.0875 90.5975 15.197 90.5554 15.2992C90.5134 15.4014 90.4515 15.4943 90.3733 15.5724C90.2952 15.6506 90.2023 15.7125 90.1001 15.7545C89.9979 15.7966 89.8884 15.8181 89.7779 15.8176L82.2417 15.8117C82.022 15.8108 81.8115 15.7236 81.6556 15.569Z" fill="url(#paint2_linear_3664_2780)"/>
<rect x="105" width="30" height="30" rx="15" fill="url(#paint3_linear_3664_2780)"/>
<path d="M120.001 16.1665C121.611 16.1665 122.917 14.5995 122.917 12.6665C122.917 10.7335 121.611 9.1665 120.001 9.1665C118.39 9.1665 117.084 10.7335 117.084 12.6665C117.084 14.5995 118.39 16.1665 120.001 16.1665Z" fill="black"/>
<path d="M125.717 19.1417C125.192 18.0917 124.201 17.2167 122.917 16.6917C122.567 16.575 122.159 16.575 121.867 16.75C121.284 17.1 120.701 17.275 120.001 17.275C119.301 17.275 118.717 17.1 118.134 16.75C117.842 16.6333 117.434 16.575 117.084 16.75C115.801 17.275 114.809 18.15 114.284 19.2C113.876 19.9583 114.517 20.8333 115.392 20.8333H124.609C125.484 20.8333 126.126 19.9583 125.717 19.1417Z" fill="black"/>
<path d="M156.353 18.9395C156.199 18.7835 156.112 18.573 156.111 18.3534C156.111 18.1322 156.199 17.9203 156.356 17.7639C156.512 17.6075 156.724 17.5193 156.945 17.5187L159.455 17.5187C159.675 17.5188 159.893 17.4756 160.097 17.3914C160.3 17.3073 160.485 17.1839 160.64 17.0283C160.796 16.8727 160.919 16.6879 161.004 16.4846C161.088 16.2813 161.131 16.0634 161.131 15.8433L161.131 14.162C161.118 13.7216 160.938 13.3027 160.626 12.9911C160.315 12.6796 159.896 12.4991 159.455 12.4867L156.945 12.4867C156.741 12.464 156.552 12.3669 156.415 12.214C156.278 12.0611 156.201 11.8631 156.201 11.6575C156.2 11.452 156.275 11.2534 156.411 11.0995C156.547 10.9456 156.735 10.8473 156.939 10.8231L159.45 10.8231C160.332 10.8439 161.172 11.2036 161.796 11.8276C162.42 12.4515 162.779 13.2917 162.8 14.1739L162.8 15.8433C162.8 16.2834 162.714 16.7192 162.546 17.1259C162.377 17.5325 162.131 17.902 161.819 18.2132C161.508 18.5244 161.139 18.7712 160.732 18.9395C160.325 19.1078 159.89 19.1943 159.45 19.1941L156.939 19.1822C156.72 19.1813 156.509 19.0941 156.353 18.9395Z" fill="url(#paint4_linear_3664_2780)"/>
<path d="M146.204 18.1558C145.893 17.845 145.646 17.4759 145.477 17.0696C145.309 16.6632 145.222 16.2277 145.221 15.7878L145.221 14.1183C145.221 13.6782 145.308 13.2424 145.476 12.8358C145.644 12.4291 145.891 12.0597 146.202 11.7485C146.513 11.4373 146.883 11.1905 147.29 11.0222C147.696 10.8539 148.132 10.7674 148.572 10.7676L151.088 10.7735C151.292 10.7977 151.48 10.896 151.617 11.0499C151.753 11.2038 151.828 11.4024 151.827 11.6079C151.826 11.8135 151.75 12.0115 151.613 12.1644C151.475 12.3173 151.286 12.4144 151.082 12.437L148.572 12.437C148.352 12.4369 148.134 12.4802 147.931 12.5643C147.727 12.6485 147.543 12.7719 147.387 12.9275C147.232 13.0831 147.108 13.2678 147.024 13.4711C146.94 13.6745 146.897 13.8924 146.897 14.1124L146.897 15.7937C146.909 16.2341 147.09 16.6531 147.401 16.9646C147.713 17.2762 148.132 17.4567 148.572 17.4691L151.082 17.4691C151.199 17.4552 151.318 17.4663 151.431 17.5015C151.543 17.5368 151.647 17.5955 151.736 17.6737C151.824 17.7519 151.895 17.8479 151.943 17.9555C151.992 18.063 152.017 18.1795 152.018 18.2975C152.018 18.4155 151.994 18.5323 151.946 18.6401C151.898 18.748 151.828 18.8445 151.74 18.9233C151.652 19.0022 151.549 19.0616 151.436 19.0976C151.324 19.1337 151.205 19.1456 151.088 19.1326H148.578C148.138 19.1339 147.701 19.0483 147.294 18.8807C146.886 18.7131 146.516 18.4667 146.204 18.1558Z" fill="url(#paint5_linear_3664_2780)"/>
<path d="M149.656 15.569C149.577 15.4915 149.515 15.3993 149.472 15.2978C149.43 15.1962 149.407 15.0872 149.407 14.977C149.406 14.8665 149.428 14.7569 149.47 14.6547C149.512 14.5525 149.574 14.4597 149.652 14.3815C149.73 14.3034 149.823 14.2415 149.925 14.1994C150.028 14.1573 150.137 14.1359 150.248 14.1363L157.784 14.1422C158.005 14.1429 158.217 14.2311 158.373 14.3875C158.53 14.5439 158.618 14.7558 158.619 14.977C158.619 15.0875 158.598 15.197 158.555 15.2992C158.513 15.4014 158.451 15.4943 158.373 15.5724C158.295 15.6506 158.202 15.7125 158.1 15.7545C157.998 15.7966 157.888 15.8181 157.778 15.8176L150.242 15.8117C150.022 15.8108 149.812 15.7236 149.656 15.569Z" fill="url(#paint6_linear_3664_2780)"/>
<rect x="173" width="30" height="30" rx="15" fill="url(#paint7_linear_3664_2780)"/>
<g clip-path="url(#clip0_3664_2780)">
<path d="M184.865 14.2971C185.705 15.9479 187.055 17.2983 188.709 18.1383L189.992 16.8521C190.152 16.6917 190.383 16.645 190.584 16.7092C191.238 16.925 191.94 17.0417 192.667 17.0417C192.99 17.0417 193.25 17.3012 193.25 17.625V19.6667C193.25 19.9904 192.99 20.25 192.667 20.25C187.189 20.25 182.75 15.8108 182.75 10.3333C182.75 10.0096 183.012 9.75 183.333 9.75H185.375C185.699 9.75 185.958 10.0096 185.958 10.3333C185.958 11.0596 186.075 11.7625 186.291 12.4158C186.355 12.6171 186.308 12.8475 186.148 13.0079L184.865 14.2971Z" fill="black"/>
</g>
<path d="M224.353 18.9395C224.199 18.7835 224.112 18.573 224.111 18.3534C224.111 18.1322 224.199 17.9203 224.356 17.7639C224.512 17.6075 224.724 17.5193 224.945 17.5187L227.455 17.5187C227.675 17.5188 227.893 17.4756 228.097 17.3914C228.3 17.3073 228.485 17.1839 228.64 17.0283C228.796 16.8727 228.919 16.6879 229.004 16.4846C229.088 16.2813 229.131 16.0634 229.131 15.8433L229.131 14.162C229.118 13.7216 228.938 13.3027 228.626 12.9911C228.315 12.6796 227.896 12.4991 227.455 12.4867L224.945 12.4867C224.741 12.464 224.552 12.3669 224.415 12.214C224.278 12.0611 224.201 11.8631 224.201 11.6575C224.2 11.452 224.275 11.2534 224.411 11.0995C224.547 10.9456 224.735 10.8473 224.939 10.8231L227.45 10.8231C228.332 10.8439 229.172 11.2036 229.796 11.8276C230.42 12.4515 230.779 13.2917 230.8 14.1739L230.8 15.8433C230.8 16.2834 230.714 16.7192 230.546 17.1259C230.377 17.5325 230.131 17.902 229.819 18.2132C229.508 18.5244 229.139 18.7712 228.732 18.9395C228.325 19.1078 227.89 19.1943 227.45 19.1941L224.939 19.1822C224.72 19.1813 224.509 19.0941 224.353 18.9395Z" fill="url(#paint8_linear_3664_2780)"/>
<path d="M214.204 18.1558C213.893 17.845 213.646 17.4759 213.477 17.0696C213.309 16.6632 213.222 16.2277 213.221 15.7878L213.221 14.1183C213.221 13.6782 213.308 13.2424 213.476 12.8358C213.644 12.4291 213.891 12.0597 214.202 11.7485C214.513 11.4373 214.883 11.1905 215.29 11.0222C215.696 10.8539 216.132 10.7674 216.572 10.7676L219.088 10.7735C219.292 10.7977 219.48 10.896 219.617 11.0499C219.753 11.2038 219.828 11.4024 219.827 11.6079C219.826 11.8135 219.75 12.0115 219.613 12.1644C219.475 12.3173 219.286 12.4144 219.082 12.437L216.572 12.437C216.352 12.4369 216.134 12.4802 215.931 12.5643C215.727 12.6485 215.543 12.7719 215.387 12.9275C215.232 13.0831 215.108 13.2678 215.024 13.4711C214.94 13.6745 214.897 13.8924 214.897 14.1124L214.897 15.7937C214.909 16.2341 215.09 16.6531 215.401 16.9646C215.713 17.2762 216.132 17.4567 216.572 17.4691L219.082 17.4691C219.199 17.4552 219.318 17.4663 219.431 17.5015C219.543 17.5368 219.647 17.5955 219.736 17.6737C219.824 17.7519 219.895 17.8479 219.943 17.9555C219.992 18.063 220.017 18.1795 220.018 18.2975C220.018 18.4155 219.994 18.5323 219.946 18.6401C219.898 18.748 219.828 18.8445 219.74 18.9233C219.652 19.0022 219.549 19.0616 219.436 19.0976C219.324 19.1337 219.205 19.1456 219.088 19.1326H216.578C216.138 19.1339 215.701 19.0483 215.294 18.8807C214.886 18.7131 214.516 18.4667 214.204 18.1558Z" fill="url(#paint9_linear_3664_2780)"/>
<path d="M217.656 15.569C217.577 15.4915 217.515 15.3993 217.472 15.2978C217.43 15.1962 217.407 15.0872 217.407 14.977C217.406 14.8665 217.428 14.7569 217.47 14.6547C217.512 14.5525 217.574 14.4597 217.652 14.3815C217.73 14.3034 217.823 14.2415 217.925 14.1994C218.028 14.1573 218.137 14.1359 218.248 14.1363L225.784 14.1422C226.005 14.1429 226.217 14.2311 226.373 14.3875C226.53 14.5439 226.618 14.7558 226.619 14.977C226.619 15.0875 226.598 15.197 226.555 15.2992C226.513 15.4014 226.451 15.4943 226.373 15.5724C226.295 15.6506 226.202 15.7125 226.1 15.7545C225.998 15.7966 225.888 15.8181 225.778 15.8176L218.242 15.8117C218.022 15.8108 217.812 15.7236 217.656 15.569Z" fill="url(#paint10_linear_3664_2780)"/>
<rect x="75" width="167" height="30" fill="url(#paint11_linear_3664_2780)"/>
<defs>
<linearGradient id="paint0_linear_3664_2780" x1="91.1274" y1="7.87209" x2="92.9555" y2="21.754" gradientUnits="userSpaceOnUse">
<stop stop-color="#FFF3CA"/>
<stop offset="1" stop-color="#BB985B"/>
</linearGradient>
<linearGradient id="paint1_linear_3664_2780" x1="81.6433" y1="7.79087" x2="83.3664" y2="21.8053" gradientUnits="userSpaceOnUse">
<stop stop-color="#FFF3CA"/>
<stop offset="1" stop-color="#BB985B"/>
</linearGradient>
<linearGradient id="paint2_linear_3664_2780" x1="86.3159" y1="9.31516" x2="87.7411" y2="20.2892" gradientUnits="userSpaceOnUse">
<stop stop-color="#FFF3CA"/>
<stop offset="1" stop-color="#BB985B"/>
</linearGradient>
<linearGradient id="paint3_linear_3664_2780" x1="103.781" y1="-3.07554" x2="141.345" y2="25.8155" gradientUnits="userSpaceOnUse">
<stop stop-color="#FFF3CA"/>
<stop offset="1" stop-color="#BB985B"/>
</linearGradient>
<linearGradient id="paint4_linear_3664_2780" x1="159.127" y1="7.87209" x2="160.955" y2="21.754" gradientUnits="userSpaceOnUse">
<stop stop-color="#FFF3CA"/>
<stop offset="1" stop-color="#BB985B"/>
</linearGradient>
<linearGradient id="paint5_linear_3664_2780" x1="149.643" y1="7.79087" x2="151.366" y2="21.8053" gradientUnits="userSpaceOnUse">
<stop stop-color="#FFF3CA"/>
<stop offset="1" stop-color="#BB985B"/>
</linearGradient>
<linearGradient id="paint6_linear_3664_2780" x1="154.316" y1="9.31516" x2="155.741" y2="20.2892" gradientUnits="userSpaceOnUse">
<stop stop-color="#FFF3CA"/>
<stop offset="1" stop-color="#BB985B"/>
</linearGradient>
<linearGradient id="paint7_linear_3664_2780" x1="171.781" y1="-3.07554" x2="209.345" y2="25.8155" gradientUnits="userSpaceOnUse">
<stop stop-color="#FFF3CA"/>
<stop offset="1" stop-color="#BB985B"/>
</linearGradient>
<linearGradient id="paint8_linear_3664_2780" x1="227.127" y1="7.87209" x2="228.955" y2="21.754" gradientUnits="userSpaceOnUse">
<stop stop-color="#FFF3CA"/>
<stop offset="1" stop-color="#BB985B"/>
</linearGradient>
<linearGradient id="paint9_linear_3664_2780" x1="217.643" y1="7.79087" x2="219.366" y2="21.8053" gradientUnits="userSpaceOnUse">
<stop stop-color="#FFF3CA"/>
<stop offset="1" stop-color="#BB985B"/>
</linearGradient>
<linearGradient id="paint10_linear_3664_2780" x1="222.316" y1="9.31516" x2="223.741" y2="20.2892" gradientUnits="userSpaceOnUse">
<stop stop-color="#FFF3CA"/>
<stop offset="1" stop-color="#BB985B"/>
</linearGradient>
<linearGradient id="paint11_linear_3664_2780" x1="75" y1="15" x2="232.5" y2="15" gradientUnits="userSpaceOnUse">
<stop stop-color="#1A1A1A"/>
<stop offset="0.38224" stop-color="#1A1A1A" stop-opacity="0"/>
<stop offset="0.628385" stop-color="#1A1A1A" stop-opacity="0"/>
<stop offset="1" stop-color="#1A1A1A"/>
</linearGradient>
<clipPath id="clip0_3664_2780">
<rect width="14" height="14" fill="white" transform="translate(181 8)"/>
</clipPath>
</defs>
</svg>
