<svg width="24" height="24" viewBox="0 0 24 24" fill="none" xmlns="http://www.w3.org/2000/svg">
<g id="Frame" clip-path="url(#clip0_3429_11989)">
<path id="Vector" d="M12 16C14.2091 16 16 14.2091 16 12C16 9.79086 14.2091 8 12 8C9.79086 8 8 9.79086 8 12C8 14.2091 9.79086 16 12 16Z" fill="url(#paint0_linear_3429_11989)"/>
<path id="Vector_2" d="M17.28 0H6.72C4.93775 0 3.22849 0.707998 1.96824 1.96824C0.707998 3.22849 0 4.93775 0 6.72V17.28C0 19.0623 0.707998 20.7715 1.96824 22.0318C3.22849 23.292 4.93775 24 6.72 24H17.28C19.0623 24 20.7715 23.292 22.0318 22.0318C23.292 20.7715 24 19.0623 24 17.28V6.72C24 4.93775 23.292 3.22849 22.0318 1.96824C20.7715 0.707998 19.0623 0 17.28 0ZM12 17.76C10.8608 17.76 9.74714 17.4222 8.79992 16.7893C7.85269 16.1563 7.11441 15.2568 6.67845 14.2043C6.24249 13.1518 6.12843 11.9936 6.35068 10.8763C6.57293 9.75895 7.12151 8.73262 7.92706 7.92706C8.73262 7.12151 9.75895 6.57293 10.8763 6.35068C11.9936 6.12843 13.1518 6.24249 14.2043 6.67845C15.2568 7.11441 16.1563 7.85269 16.7893 8.79992C17.4222 9.74714 17.76 10.8608 17.76 12C17.76 13.5276 17.1531 14.9927 16.0729 16.0729C14.9927 17.1531 13.5276 17.76 12 17.76ZM18.24 7.2C17.9552 7.2 17.6768 7.11555 17.44 6.95732C17.2032 6.79909 17.0186 6.57419 16.9096 6.31106C16.8006 6.04794 16.7721 5.7584 16.8277 5.47907C16.8832 5.19974 17.0204 4.94315 17.2218 4.74177C17.4232 4.54038 17.6797 4.40323 17.9591 4.34767C18.2384 4.29211 18.5279 4.32062 18.7911 4.42961C19.0542 4.5386 19.2791 4.72317 19.4373 4.95998C19.5955 5.19679 19.68 5.47519 19.68 5.76C19.68 6.14191 19.5283 6.50818 19.2582 6.77823C18.9882 7.04829 18.6219 7.2 18.24 7.2Z" fill="url(#paint1_linear_3429_11989)"/>
</g>
<defs>
<linearGradient id="paint0_linear_3429_11989" x1="7.675" y1="7.17986" x2="17.6921" y2="14.8841" gradientUnits="userSpaceOnUse">
<stop stop-color="#FFF3CA"/>
<stop offset="1" stop-color="#BB985B"/>
</linearGradient>
<linearGradient id="paint1_linear_3429_11989" x1="-0.975" y1="-2.46043" x2="29.0762" y2="20.6524" gradientUnits="userSpaceOnUse">
<stop stop-color="#FFF3CA"/>
<stop offset="1" stop-color="#BB985B"/>
</linearGradient>
<clipPath id="clip0_3429_11989">
<rect width="24" height="24" fill="white"/>
</clipPath>
</defs>
</svg>
