<svg width="28" height="28" viewBox="0 0 28 28" fill="none" xmlns="http://www.w3.org/2000/svg">
<path d="M19.1051 10.0789C19.1045 9.60648 18.9166 9.15361 18.5826 8.81959C18.2486 8.48557 17.7957 8.29767 17.3234 8.29712H16.5066V6.47805H16.5809C16.7581 6.47805 16.9281 6.40766 17.0534 6.28237C17.1786 6.15707 17.249 5.98714 17.249 5.80995C17.249 5.63276 17.1786 5.46282 17.0534 5.33753C16.9281 5.21223 16.7581 5.14185 16.5809 5.14185H11.384C11.2963 5.14185 11.2094 5.15913 11.1283 5.1927C11.0473 5.22628 10.9736 5.27549 10.9116 5.33753C10.8496 5.39957 10.8003 5.47322 10.7668 5.55428C10.7332 5.63533 10.7159 5.72221 10.7159 5.80995C10.7159 5.89768 10.7332 5.98456 10.7668 6.06562C10.8003 6.14668 10.8496 6.22033 10.9116 6.28237C10.9736 6.34441 11.0473 6.39362 11.1283 6.42719C11.2094 6.46077 11.2963 6.47805 11.384 6.47805H11.4583V8.29712H10.6416C10.1692 8.29767 9.71635 8.48557 9.38233 8.81959C9.04831 9.15361 8.86041 9.60648 8.85986 10.0789V18.2455C8.86079 18.5046 8.91859 18.7603 9.02917 18.9947C9.13975 19.229 9.30041 19.4362 9.49983 19.6017C9.20813 19.9501 9.04741 20.3895 9.04547 20.8439C9.04547 21.3657 9.25274 21.8661 9.62169 22.235C9.99063 22.604 10.491 22.8113 11.0128 22.8113C11.5346 22.8113 12.035 22.604 12.4039 22.235C12.7729 21.8661 12.9801 21.3657 12.9801 20.8439C12.9791 20.5616 12.9167 20.283 12.7973 20.0272H15.1677C15.0483 20.283 14.9859 20.5616 14.9848 20.8439C14.9848 21.3657 15.1921 21.8661 15.5611 22.235C15.93 22.604 16.4304 22.8113 16.9522 22.8113C17.4739 22.8113 17.9743 22.604 18.3433 22.235C18.7122 21.8661 18.9195 21.3657 18.9195 20.8439C18.9176 20.3895 18.7568 19.9501 18.4651 19.6017C18.6645 19.4362 18.8252 19.229 18.9358 18.9947C19.0464 18.7603 19.1042 18.5046 19.1051 18.2455V10.0789ZM12.7945 6.47805H15.1704V8.29712H12.7945V6.47805ZM12.9431 17.1318C12.9427 17.3087 12.8721 17.4783 12.7468 17.6032C12.6216 17.7281 12.4519 17.7983 12.275 17.7983C12.0981 17.7983 11.9284 17.7281 11.8031 17.6032C11.6779 17.4783 11.6073 17.3087 11.6069 17.1318V11.1925C11.6073 11.0156 11.6779 10.846 11.8031 10.7211C11.9284 10.5962 12.0981 10.526 12.275 10.526C12.4519 10.526 12.6216 10.5962 12.7468 10.7211C12.8721 10.846 12.9427 11.0156 12.9431 11.1925V17.1318ZM16.3581 17.1318C16.3577 17.3087 16.2871 17.4783 16.1619 17.6032C16.0366 17.7281 15.867 17.7983 15.69 17.7983C15.5131 17.7983 15.3434 17.7281 15.2182 17.6032C15.0929 17.4783 15.0224 17.3087 15.0219 17.1318V11.1925C15.0224 11.0156 15.0929 10.846 15.2182 10.7211C15.3434 10.5962 15.5131 10.526 15.69 10.526C15.867 10.526 16.0366 10.5962 16.1619 10.7211C16.2871 10.846 16.3577 11.0156 16.3581 11.1925V17.1318Z" fill="white"/>
</svg>
