<svg width="326" height="30" viewBox="0 0 326 30" fill="none" xmlns="http://www.w3.org/2000/svg">
<path d="M89.9999 14.0718C87.8296 14.0718 84.7745 17.6366 84.7745 19.8882C84.7504 20.9021 85.4816 21.5093 86.7131 21.5093C88.0475 21.5093 88.9307 20.7801 89.9999 20.7801C91.0799 20.7801 91.9659 21.5093 93.2866 21.5093C94.4924 21.5093 95.2482 20.9027 95.2482 19.8896C95.2253 17.6395 92.171 14.0718 89.9999 14.0718ZM85.9749 13.7058C85.6913 12.7 84.8128 12.0463 84.0165 12.2496C83.2203 12.453 82.8056 13.4327 83.0893 14.4379C83.3728 15.446 84.2514 16.0997 85.0476 15.8963C85.8439 15.693 86.2565 14.711 85.9749 13.7058ZM88.2909 13.1015C89.135 12.8654 89.5588 11.675 89.2342 10.3888C88.9097 9.10265 87.9628 8.32316 87.1154 8.53322C86.2713 8.76927 85.8474 9.9597 86.172 11.2459C86.4971 12.5059 87.4432 13.3397 88.2909 13.1015ZM95.9854 12.2502C95.1892 12.073 94.3106 12.7005 94.0271 13.7063C93.7435 14.7124 94.1569 15.6927 94.9532 15.896C95.7494 16.0733 96.6244 15.4457 96.9115 14.4399C97.194 13.4327 96.7565 12.4536 95.9854 12.2502ZM91.7088 13.1015C92.5319 13.3375 93.5031 12.5059 93.8277 11.2459C94.1523 9.98585 93.7286 8.76912 92.8844 8.53322C92.0613 8.29716 91.0901 9.1288 90.7655 10.3888C90.4401 11.6488 90.8639 12.8661 91.7088 13.1015Z" fill="url(#paint0_linear_3664_2825)"/>
<path d="M137.75 7.5H135.25L133.662 5.9125C133.088 5.33778 132.312 5.01031 131.5 5H128.375C128.2 4.2985 127.799 3.67391 127.235 3.22224C126.67 2.77057 125.973 2.51682 125.25 2.5V10.45C125.314 11.7124 125.813 12.9137 126.663 13.85C128.061 15.1941 129.89 16.0001 131.825 16.125L136.137 14.4C136.643 14.1969 137.099 13.8859 137.473 13.4887C137.846 13.0914 138.128 12.6175 138.3 12.1L139 10.1875C139.019 10.059 139.019 9.92847 139 9.8V8.75C139 8.41848 138.868 8.10054 138.634 7.86612C138.399 7.6317 138.082 7.5 137.75 7.5ZM131.5 10C131.253 10 131.011 9.92669 130.806 9.78934C130.6 9.65199 130.44 9.45676 130.345 9.22835C130.251 8.99995 130.226 8.74861 130.274 8.50614C130.322 8.26366 130.441 8.04093 130.616 7.86612C130.791 7.6913 131.014 7.57225 131.256 7.52402C131.499 7.47579 131.75 7.50054 131.978 7.59515C132.207 7.68976 132.402 7.84998 132.539 8.05554C132.677 8.2611 132.75 8.50277 132.75 8.75C132.75 9.08152 132.618 9.39946 132.384 9.63388C132.149 9.8683 131.832 10 131.5 10Z" fill="url(#paint1_linear_3664_2825)"/>
<path d="M125.725 14.675C124.853 13.72 124.283 12.5283 124.087 11.25H119C118.666 11.2721 118.331 11.2226 118.018 11.1048C117.704 10.9869 117.42 10.8035 117.183 10.5668C116.946 10.3301 116.763 10.0456 116.645 9.73224C116.527 9.41891 116.478 9.08402 116.5 8.75C116.5 8.41848 116.368 8.10054 116.134 7.86612C115.899 7.6317 115.582 7.5 115.25 7.5C114.918 7.5 114.601 7.6317 114.366 7.86612C114.132 8.10054 114 8.41848 114 8.75C114.013 9.61746 114.217 10.4713 114.6 11.25C115.022 12.0676 115.685 12.7355 116.5 13.1625V27.5H120.25V21.25H127.75V27.5H131.5V17.3375C129.319 17.1657 127.272 16.2216 125.725 14.675Z" fill="url(#paint2_linear_3664_2825)"/>
<path d="M163 14.0718C160.83 14.0718 157.774 17.6366 157.774 19.8882C157.75 20.9021 158.482 21.5093 159.713 21.5093C161.048 21.5093 161.931 20.7801 163 20.7801C164.08 20.7801 164.966 21.5093 166.287 21.5093C167.492 21.5093 168.248 20.9027 168.248 19.8896C168.225 17.6395 165.171 14.0718 163 14.0718ZM158.975 13.7058C158.691 12.7 157.813 12.0463 157.017 12.2496C156.22 12.453 155.806 13.4327 156.089 14.4379C156.373 15.446 157.251 16.0997 158.048 15.8963C158.844 15.693 159.257 14.711 158.975 13.7058ZM161.291 13.1015C162.135 12.8654 162.559 11.675 162.234 10.3888C161.91 9.10265 160.963 8.32316 160.115 8.53322C159.271 8.76927 158.847 9.9597 159.172 11.2459C159.497 12.5059 160.443 13.3397 161.291 13.1015ZM168.985 12.2502C168.189 12.073 167.311 12.7005 167.027 13.7063C166.743 14.7124 167.157 15.6927 167.953 15.896C168.749 16.0733 169.624 15.4457 169.912 14.4399C170.194 13.4327 169.757 12.4536 168.985 12.2502ZM164.709 13.1015C165.532 13.3375 166.503 12.5059 166.828 11.2459C167.152 9.98585 166.729 8.76912 165.884 8.53322C165.061 8.29716 164.09 9.1288 163.765 10.3888C163.44 11.6488 163.864 12.8661 164.709 13.1015Z" fill="url(#paint3_linear_3664_2825)"/>
<path d="M200.648 10.4167C199.614 10.4167 195.172 10.5146 192.312 14.6694V10.4167C192.312 7.79724 190.105 5.66667 187.391 5.66667C186.485 5.66667 185.75 6.3757 185.75 7.25C185.75 8.1243 186.485 8.83333 187.391 8.83333C188.295 8.83333 189.031 9.54385 189.031 10.4167V23.0833C189.031 24.8299 190.503 26.25 192.312 26.25H201.336C201.789 26.25 202.156 25.8957 202.156 25.4583V24.6667C202.156 23.7924 201.422 23.0833 200.516 23.0833H198.875L205.438 18.3333V25.4583C205.438 25.8957 205.805 26.25 206.258 26.25H207.898C208.352 26.25 208.719 25.8957 208.719 25.4583V15.2587C208.191 15.3908 207.648 15.4833 207.078 15.4833C203.909 15.4833 201.258 13.3038 200.648 10.4167ZM208.719 5.66667H205.438L202.156 2.5V9.15C202.156 11.7734 204.36 13.9 207.078 13.9C209.796 13.9 212 11.7734 212 9.15V2.5L208.719 5.66667ZM205.027 9.625C204.574 9.625 204.207 9.27073 204.207 8.83333C204.207 8.39594 204.574 8.04167 205.027 8.04167C205.481 8.04167 205.848 8.39594 205.848 8.83333C205.848 9.27073 205.481 9.625 205.027 9.625ZM209.129 9.625C208.676 9.625 208.309 9.27073 208.309 8.83333C208.309 8.39594 208.676 8.04167 209.129 8.04167C209.582 8.04167 209.949 8.39594 209.949 8.83333C209.949 9.27073 209.582 9.625 209.129 9.625Z" fill="url(#paint4_linear_3664_2825)"/>
<path d="M236 14.0718C233.83 14.0718 230.774 17.6366 230.774 19.8882C230.75 20.9021 231.482 21.5093 232.713 21.5093C234.048 21.5093 234.931 20.7801 236 20.7801C237.08 20.7801 237.966 21.5093 239.287 21.5093C240.492 21.5093 241.248 20.9027 241.248 19.8896C241.225 17.6395 238.171 14.0718 236 14.0718ZM231.975 13.7058C231.691 12.7 230.813 12.0463 230.017 12.2496C229.22 12.453 228.806 13.4327 229.089 14.4379C229.373 15.446 230.251 16.0997 231.048 15.8963C231.844 15.693 232.257 14.711 231.975 13.7058ZM234.291 13.1015C235.135 12.8654 235.559 11.675 235.234 10.3888C234.91 9.10265 233.963 8.32316 233.115 8.53322C232.271 8.76927 231.847 9.9597 232.172 11.2459C232.497 12.5059 233.443 13.3397 234.291 13.1015ZM241.985 12.2502C241.189 12.073 240.311 12.7005 240.027 13.7063C239.743 14.7124 240.157 15.6927 240.953 15.896C241.749 16.0733 242.624 15.4457 242.912 14.4399C243.194 13.4327 242.757 12.4536 241.985 12.2502ZM237.709 13.1015C238.532 13.3375 239.503 12.5059 239.828 11.2459C240.152 9.98585 239.729 8.76912 238.884 8.53322C238.061 8.29716 237.09 9.1288 236.765 10.3888C236.44 11.6488 236.864 12.8661 237.709 13.1015Z" fill="url(#paint5_linear_3664_2825)"/>
<rect x="79" width="167" height="30" fill="url(#paint6_linear_3664_2825)"/>
<defs>
<linearGradient id="paint0_linear_3664_2825" x1="82.4313" y1="7.15877" x2="98.9948" y2="20.8588" gradientUnits="userSpaceOnUse">
<stop stop-color="#FFF3CA"/>
<stop offset="1" stop-color="#BB985B"/>
</linearGradient>
<linearGradient id="paint1_linear_3664_2825" x1="124.691" y1="1.10319" x2="141.795" y2="14.3926" gradientUnits="userSpaceOnUse">
<stop stop-color="#FFF3CA"/>
<stop offset="1" stop-color="#BB985B"/>
</linearGradient>
<linearGradient id="paint2_linear_3664_2825" x1="113.289" y1="5.44964" x2="137.292" y2="21.6033" gradientUnits="userSpaceOnUse">
<stop stop-color="#FFF3CA"/>
<stop offset="1" stop-color="#BB985B"/>
</linearGradient>
<linearGradient id="paint3_linear_3664_2825" x1="155.431" y1="7.15877" x2="171.995" y2="20.8588" gradientUnits="userSpaceOnUse">
<stop stop-color="#FFF3CA"/>
<stop offset="1" stop-color="#BB985B"/>
</linearGradient>
<linearGradient id="paint4_linear_3664_2825" x1="184.684" y1="0.0651983" x2="215.051" y2="25.8797" gradientUnits="userSpaceOnUse">
<stop stop-color="#FFF3CA"/>
<stop offset="1" stop-color="#BB985B"/>
</linearGradient>
<linearGradient id="paint5_linear_3664_2825" x1="228.431" y1="7.15877" x2="244.995" y2="20.8588" gradientUnits="userSpaceOnUse">
<stop stop-color="#FFF3CA"/>
<stop offset="1" stop-color="#BB985B"/>
</linearGradient>
<linearGradient id="paint6_linear_3664_2825" x1="79" y1="15" x2="236.5" y2="15" gradientUnits="userSpaceOnUse">
<stop stop-color="#1A1A1A"/>
<stop offset="0.38224" stop-color="#1A1A1A" stop-opacity="0"/>
<stop offset="0.628385" stop-color="#1A1A1A" stop-opacity="0"/>
<stop offset="1" stop-color="#1A1A1A"/>
</linearGradient>
</defs>
</svg>
