<svg width="55" height="54" viewBox="0 0 55 54" fill="none" xmlns="http://www.w3.org/2000/svg">
<path d="M28.0058 6.19591C29.4638 6.19591 30.9202 6.17371 32.3783 6.17371C33.6729 6.17371 34.9834 6.14992 36.2685 6.31644L35.8465 6.25935C36.8365 6.39257 37.8042 6.64157 38.7276 7.02696L38.3484 6.86677C39.1576 7.20934 39.9159 7.65182 40.6124 8.18788L40.2919 7.94047C41.0249 8.51142 41.6754 9.17593 42.245 9.91024L41.9975 9.58987C42.5734 10.34 43.0446 11.16 43.5317 11.9704C44.1012 12.9188 44.666 13.8688 45.2277 14.8236C46.3335 16.7029 47.4266 18.5886 48.5213 20.4743C49.1226 21.51 49.7969 22.5297 50.2697 23.6304L50.1095 23.2514C50.4426 24.0459 50.6632 24.8754 50.7853 25.7286L50.7282 25.3068C50.8853 26.4772 50.852 27.6572 50.7028 28.8276L50.7599 28.4057C50.6536 29.1876 50.4283 29.9394 50.1237 30.6673L50.284 30.2883C49.9064 31.1732 49.4272 32.0075 48.9402 32.8369C48.3817 33.7853 47.8232 34.7321 47.268 35.6821C46.1415 37.6059 45.0182 39.5329 43.8902 41.4566C43.3111 42.4431 42.7749 43.4771 42.0784 44.3875L42.3259 44.0671C41.7976 44.7475 41.1836 45.3502 40.503 45.8783L40.8234 45.6309C39.9524 46.2954 38.9941 46.8235 37.9867 47.2517L38.3659 47.0915C37.5567 47.4309 36.7143 47.6514 35.8449 47.7719L36.2669 47.7148C35.2356 47.8496 34.1996 47.8243 33.162 47.8195C32.061 47.8148 30.9615 47.8132 29.8604 47.8116C27.644 47.81 25.4261 47.8116 23.2097 47.8148C22.0674 47.8148 20.9139 47.8703 19.7796 47.7228L20.2016 47.7799C19.2814 47.6514 18.3866 47.404 17.5298 47.0456L17.909 47.2057C16.9016 46.7775 15.9671 46.2066 15.0977 45.5421L15.4182 45.7895C14.8089 45.3184 14.2695 44.7903 13.7951 44.1829L14.0426 44.5033C13.4699 43.7594 12.9955 42.949 12.5243 42.137C11.9738 41.1902 11.4233 40.2434 10.8711 39.2981C9.75104 37.3759 8.62777 35.4553 7.50291 33.5347C6.89844 32.5007 6.21781 31.4809 5.74343 30.3787L5.90368 30.7577C5.5594 29.9394 5.3357 29.0829 5.21512 28.2027L5.27223 28.6246C5.13579 27.5652 5.13103 26.4788 5.27223 25.421L5.21512 25.8428C5.34521 24.9277 5.60541 24.0428 5.96397 23.1895L5.80372 23.5686C6.20353 22.6328 6.72709 21.7685 7.24272 20.893C7.80277 19.943 8.35964 18.9899 8.91493 18.0367C10.0081 16.1573 11.0948 14.2732 12.1927 12.397C12.7528 11.4391 13.2779 10.4463 13.9554 9.5645L13.7079 9.88486C14.2409 9.20131 14.8533 8.59071 15.5387 8.061L15.2183 8.30841C15.9735 7.73271 16.8016 7.26644 17.6742 6.89373L17.295 7.05392C18.2105 6.67011 19.1894 6.34499 20.1746 6.2086L19.7526 6.26569C20.411 6.18322 21.0726 6.19432 21.7358 6.19591C22.4323 6.1975 23.1288 6.19908 23.8252 6.19908C25.2182 6.19908 26.6112 6.19908 28.0026 6.19908C28.8324 6.19908 29.6272 5.46954 29.5891 4.61312C29.5511 3.7567 28.8926 3.02716 28.0026 3.02716C26.6096 3.02716 25.2166 3.02874 23.8252 3.02716C23.1446 3.02716 22.4656 3.02716 21.7849 3.02398C21.1043 3.02081 20.4887 3.00971 19.843 3.08267C17.4584 3.35545 15.1548 4.37205 13.2684 5.83907C12.3863 6.52579 11.6517 7.34732 11.0012 8.2529C10.2667 9.27426 9.67647 10.413 9.04344 11.4994C7.66632 13.8609 6.30349 16.2319 4.91844 18.5886C4.28223 19.6718 3.60002 20.7344 3.09867 21.889C2.52117 23.2212 2.14516 24.5629 2.03728 26.0173C1.94209 27.2987 2.02934 28.6024 2.29747 29.8601C2.57987 31.1828 3.15737 32.3897 3.83641 33.549C5.22146 35.9153 6.60493 38.2815 7.9868 40.6494C8.64998 41.7849 9.30839 42.9221 9.97157 44.0576C10.6347 45.1932 11.3043 46.2462 12.1911 47.1661C13.032 48.0384 14.0791 48.7743 15.1342 49.3674C16.1892 49.9606 17.3347 50.4268 18.5135 50.6869C19.8145 50.974 21.1091 50.9883 22.4323 50.9867C23.7554 50.9851 25.1833 50.9835 26.5588 50.9819C27.9344 50.9803 29.3099 50.9819 30.6854 50.9819C32.061 50.9819 33.4159 51.0152 34.7787 50.9914C36.1416 50.9676 37.5298 50.7821 38.8069 50.3063C39.9064 49.8971 40.9821 49.3753 41.9499 48.7092C42.9177 48.0431 43.7982 47.2819 44.5217 46.3652C45.3562 45.3073 45.9971 44.1306 46.6762 42.9712C48.0644 40.6018 49.4463 38.2276 50.8393 35.8598C51.477 34.7734 52.1545 33.7013 52.7098 32.5689C53.0144 31.9488 53.2905 31.3096 53.5015 30.6515C53.7125 29.9933 53.8251 29.278 53.906 28.5707C54.2027 25.9776 53.8124 23.3148 52.5115 21.0278C51.1582 18.6473 49.7652 16.289 48.3801 13.9259C47.6916 12.7507 46.9967 11.5771 46.2954 10.4098C45.6497 9.33453 45.0103 8.27828 44.2043 7.31401C42.8336 5.67413 41.0233 4.46721 39.0148 3.75511C36.7635 2.95579 34.344 2.99702 31.9896 3.00178C30.6616 3.00495 29.3337 3.0224 28.0058 3.0224C27.176 3.0224 26.3812 3.75194 26.4192 4.60836C26.4573 5.46478 27.1157 6.19432 28.0058 6.19432V6.19591Z" fill="white"/>
<path fill-rule="evenodd" clip-rule="evenodd" d="M49.6012 16.1553L49.8957 16.854C50.2462 17.6857 50.3398 18.3663 50.206 18.9746L50.1179 19.3751L49.7402 19.5348C42.7767 22.4797 36.1608 25.3378 32.5872 27.6056C31.0521 28.7812 30.0814 30.497 29.7279 32.8527C29.4685 37.4984 29.6352 42.108 29.8022 46.7284V46.7285C29.8428 47.8514 29.8835 48.9749 29.918 50.0997L29.9431 50.9173H25.4289L25.4445 50.1088C25.4882 47.8398 25.5902 45.6454 25.6887 43.5272V43.5271V43.5271V43.5271V43.5271C25.8651 39.7293 26.0303 36.1763 25.8281 32.8774C25.5371 30.5682 24.5303 28.8648 22.9544 27.6002C19.8546 25.6233 14.4994 23.3064 9.06527 20.9554L9.06526 20.9554C7.96906 20.4811 6.86965 20.0055 5.78489 19.531L4.78711 19.0945L7.09235 16.4878H7.60024L23.2233 22.5655L23.2462 22.5761C23.4425 22.6673 23.6731 22.6687 24.0413 22.4996C25.1851 21.7039 26.4054 21.2289 27.6954 21.2059C29.0114 21.1825 30.315 21.6311 31.5962 22.541L31.5977 22.5421L31.5991 22.5431C31.7568 22.6562 31.9093 22.6845 32.1543 22.5987L32.1587 22.5971L49.6012 16.1553ZM9.19303 18.4189C9.36475 18.4424 9.59542 18.4946 9.88029 18.5722L9.88646 18.5739L9.89246 18.576C10.3885 18.7431 10.8869 18.9099 11.3856 19.0768L11.3865 19.0771L11.3867 19.0772C15.6353 20.4991 19.9097 21.9296 22.9381 23.6358L23.0109 23.6768L23.0057 23.7213C23.1654 24.162 23.0817 24.5041 22.805 24.746C22.5286 24.9877 22.0806 25.1105 21.5744 25.1481L21.5231 25.1519L21.4761 25.1332C17.156 23.4122 13.1378 21.4034 9.35687 19.1682L9.35293 19.1659L9.34919 19.1634C9.1284 19.0169 8.9629 18.8933 8.85972 18.7943C8.80868 18.7453 8.76609 18.696 8.74247 18.6486C8.71919 18.6018 8.70539 18.537 8.75786 18.4808C8.80846 18.4267 8.89349 18.4104 8.9592 18.406C9.02786 18.4014 9.10785 18.4073 9.19303 18.4189ZM28.7746 31.9583C28.4505 31.5114 28.1186 31.3442 27.8001 31.4133C27.4866 31.4814 27.2104 31.7737 26.9852 32.172L26.9623 32.2124L26.9606 32.2646C26.8049 37.0486 27.0133 41.7746 27.5066 46.455L27.5072 46.4598L27.5079 46.4646C27.5504 46.7486 27.5942 46.9709 27.6404 47.1243C27.6633 47.2002 27.6896 47.2692 27.7216 47.3211C27.7531 47.3722 27.8037 47.4278 27.8721 47.4219C27.9381 47.4162 27.9845 47.356 28.0132 47.3039C28.0432 47.2495 28.0684 47.1785 28.0907 47.0993C28.1355 46.9396 28.1779 46.7111 28.2188 46.4199L28.2196 46.4137L28.2202 46.4073C28.2648 45.872 28.3106 45.3349 28.3564 44.7974L28.3566 44.7956L28.3567 44.7941C28.7357 40.3515 29.1167 35.8851 28.8215 32.2309H28.9724L28.7746 31.9583ZM34.0413 25.0188C33.5061 24.9198 33.1791 24.7259 33.0407 24.4643C32.8966 24.1921 32.9682 23.8676 33.163 23.5449L33.1829 23.512L33.2264 23.4916C37.2156 21.6218 41.3914 20.0598 45.7116 18.7395L45.7162 18.7381L45.7208 18.7369C45.991 18.6669 46.2093 18.6203 46.3703 18.6007C46.4499 18.5911 46.5259 18.5866 46.5909 18.5929C46.655 18.599 46.7352 18.6187 46.7743 18.6748C46.8121 18.729 46.7905 18.7876 46.7646 18.8293C46.7375 18.8729 46.6931 18.9188 46.6397 18.9654C46.5322 19.0592 46.3641 19.1763 46.1415 19.3154L46.1367 19.3184L46.1315 19.3212C45.7055 19.5504 45.2787 19.7812 44.8517 20.0122C41.2363 21.9675 37.6007 23.9339 34.2377 25.0274L34.0507 25.0882L34.0413 25.0188ZM27.8074 22.6546C25.7842 22.6546 24.1441 24.2947 24.1441 26.3179C24.1441 28.3411 25.7842 29.9812 27.8074 29.9812C29.8306 29.9812 31.4707 28.3411 31.4707 26.3179C31.4707 24.2947 29.8306 22.6546 27.8074 22.6546Z" fill="white"/>
</svg>
