<svg width="24" height="27" viewBox="0 0 24 27" fill="none" xmlns="http://www.w3.org/2000/svg">
<rect y="0.632812" width="24" height="25.6694" rx="4" fill="#1A1A1A"/>
<path d="M17.1222 9.56982C17.1216 9.09744 16.9337 8.64457 16.5997 8.31055C16.2657 7.97654 15.8128 7.78864 15.3404 7.78809H14.5237V5.96902H14.598C14.7752 5.96902 14.9452 5.89863 15.0704 5.77333C15.1957 5.64804 15.2661 5.47811 15.2661 5.30091C15.2661 5.12372 15.1957 4.95379 15.0704 4.8285C14.9452 4.7032 14.7752 4.63281 14.598 4.63281H9.4011C9.31336 4.63281 9.22649 4.65009 9.14543 4.68367C9.06437 4.71724 8.99072 4.76646 8.92868 4.8285C8.86664 4.89053 8.81743 4.96419 8.78385 5.04524C8.75028 5.1263 8.733 5.21318 8.733 5.30091C8.733 5.38865 8.75028 5.47553 8.78385 5.55659C8.81743 5.63764 8.86664 5.7113 8.92868 5.77333C8.99072 5.83537 9.06437 5.88459 9.14543 5.91816C9.22649 5.95174 9.31336 5.96902 9.4011 5.96902H9.47542V7.78809H8.65868C8.18631 7.78864 7.73344 7.97654 7.39942 8.31055C7.0654 8.64457 6.8775 9.09744 6.87695 9.56982V17.7364C6.87788 17.9955 6.93568 18.2513 7.04626 18.4856C7.15684 18.72 7.3175 18.9272 7.51692 19.0927C7.22522 19.4411 7.0645 19.8805 7.06256 20.3349C7.06256 20.8567 7.26983 21.3571 7.63878 21.726C8.00772 22.0949 8.50812 22.3022 9.02989 22.3022C9.55166 22.3022 10.0521 22.0949 10.421 21.726C10.79 21.3571 10.9972 20.8567 10.9972 20.3349C10.9961 20.0526 10.9338 19.7739 10.8144 19.5181H13.1848C13.0654 19.7739 13.003 20.0526 13.0019 20.3349C13.0019 20.8567 13.2092 21.3571 13.5782 21.726C13.9471 22.0949 14.4475 22.3022 14.9693 22.3022C15.491 22.3022 15.9914 22.0949 16.3604 21.726C16.7293 21.3571 16.9366 20.8567 16.9366 20.3349C16.9347 19.8805 16.7739 19.4411 16.4822 19.0927C16.6816 18.9272 16.8423 18.72 16.9529 18.4856C17.0634 18.2513 17.1212 17.9955 17.1222 17.7364V9.56982ZM10.8116 5.96902H13.1875V7.78809H10.8116V5.96902ZM10.9602 16.6228C10.9597 16.7997 10.8892 16.9692 10.7639 17.0942C10.6387 17.2191 10.469 17.2893 10.2921 17.2893C10.1152 17.2893 9.94547 17.2191 9.82022 17.0942C9.69498 16.9692 9.6244 16.7997 9.62397 16.6228V10.6834C9.6244 10.5065 9.69498 10.337 9.82022 10.2121C9.94547 10.0871 10.1152 10.017 10.2921 10.017C10.469 10.017 10.6387 10.0871 10.7639 10.2121C10.8892 10.337 10.9597 10.5065 10.9602 10.6834V16.6228ZM14.3752 16.6228C14.3748 16.7997 14.3042 16.9692 14.179 17.0942C14.0537 17.2191 13.884 17.2893 13.7071 17.2893C13.5302 17.2893 13.3605 17.2191 13.2353 17.0942C13.11 16.9692 13.0395 16.7997 13.039 16.6228V10.6834C13.0395 10.5065 13.11 10.337 13.2353 10.2121C13.3605 10.0871 13.5302 10.017 13.7071 10.017C13.884 10.017 14.0537 10.0871 14.179 10.2121C14.3042 10.337 14.3748 10.5065 14.3752 10.6834V16.6228Z" fill="url(#paint0_linear_1459_6073)"/>
<defs>
<linearGradient id="paint0_linear_1459_6073" x1="6.46074" y1="2.82138" x2="23.4907" y2="10.416" gradientUnits="userSpaceOnUse">
<stop stop-color="#FFF3CA"/>
<stop offset="1" stop-color="#BB985B"/>
</linearGradient>
</defs>
</svg>
