<svg width="24" height="24" viewBox="0 0 24 24" fill="none" xmlns="http://www.w3.org/2000/svg">
<g id="Layer_1" clip-path="url(#clip0_3429_11985)">
<g id="Group">
<path id="Vector" d="M12.1694 11.1161L7.73453 4.91064H5.36914L10.8628 12.5971L11.5544 13.564L16.2567 20.1489H18.6221L12.858 12.0831L12.1694 11.1161Z" fill="url(#paint0_linear_3429_11985)"/>
<path id="Vector_2" d="M21.9925 0.5H2.0075C0.898749 0.5 0 1.39875 0 2.5075V22.4925C0 23.6013 0.898749 24.5 2.0075 24.5H21.9925C23.1013 24.5 24 23.6013 24 22.4925V2.5075C24 1.39875 23.1013 0.5 21.9925 0.5ZM15.5295 21.2273L10.7703 14.4494L4.81248 21.2273H3.27273L10.0875 13.4767L3.27273 3.77273H8.47053L12.9761 10.1894L18.6214 3.77273H20.161L13.6625 11.1643L20.7273 21.2273H15.5295Z" fill="url(#paint1_linear_3429_11985)"/>
</g>
</g>
<defs>
<linearGradient id="paint0_linear_3429_11985" x1="4.83074" y1="3.34845" x2="23.0772" y2="15.5537" gradientUnits="userSpaceOnUse">
<stop stop-color="#FFF3CA"/>
<stop offset="1" stop-color="#BB985B"/>
</linearGradient>
<linearGradient id="paint1_linear_3429_11985" x1="-0.975" y1="-1.96043" x2="29.0762" y2="21.1524" gradientUnits="userSpaceOnUse">
<stop stop-color="#FFF3CA"/>
<stop offset="1" stop-color="#BB985B"/>
</linearGradient>
<clipPath id="clip0_3429_11985">
<rect width="24" height="24" fill="white"/>
</clipPath>
</defs>
</svg>
