<svg width="24" height="24" viewBox="0 0 24 24" fill="none" xmlns="http://www.w3.org/2000/svg">
<g id="Layer_1" clip-path="url(#clip0_3429_11993)">
<g id="Group">
<path id="Vector" d="M12.5754 11.1214V11.085C12.5678 11.0973 12.5598 11.1096 12.5518 11.1214H12.5754Z" fill="url(#paint0_linear_3429_11993)"/>
<path id="Vector_2" d="M21.6698 0.5H1.72853C0.774075 0.5 0 1.25561 0 2.18687V22.3616C0 23.2924 0.774075 24.048 1.72853 24.048H21.6698C22.6257 24.048 23.3998 23.2919 23.3998 22.3616V2.18687C23.3998 1.25514 22.6252 0.5 21.6698 0.5ZM7.09261 20.2126H3.55838V9.57964H7.09261V20.2126ZM5.32573 8.12712H5.30206C4.11656 8.12712 3.34959 7.31044 3.34959 6.29017C3.34959 5.24718 4.14023 4.45323 5.34893 4.45323C6.55809 4.45323 7.30187 5.24718 7.32554 6.29017C7.32554 7.31044 6.55762 8.12712 5.32573 8.12712ZM19.8371 20.2126H16.3029V14.5228C16.3029 13.094 15.7916 12.1187 14.5128 12.1187C13.5366 12.1187 12.9552 12.7763 12.6991 13.4117C12.6058 13.6384 12.5831 13.9556 12.5831 14.2738V20.2122H9.04886C9.04886 20.2122 9.09526 10.5758 9.04886 9.57916H12.5831V11.0842C13.0527 10.3599 13.8926 9.32824 15.7689 9.32824C18.0939 9.32824 19.8376 10.8485 19.8376 14.1147L19.8371 20.2126Z" fill="url(#paint1_linear_3429_11993)"/>
</g>
</g>
<defs>
<linearGradient id="paint0_linear_3429_11993" x1="12.5508" y1="11.0812" x2="12.5885" y2="11.1001" gradientUnits="userSpaceOnUse">
<stop stop-color="#FFF3CA"/>
<stop offset="1" stop-color="#BB985B"/>
</linearGradient>
<linearGradient id="paint1_linear_3429_11993" x1="-0.950617" y1="-1.91409" x2="28.4863" y2="20.5838" gradientUnits="userSpaceOnUse">
<stop stop-color="#FFF3CA"/>
<stop offset="1" stop-color="#BB985B"/>
</linearGradient>
<clipPath id="clip0_3429_11993">
<rect width="24" height="24" fill="white"/>
</clipPath>
</defs>
</svg>
