<svg width="252" height="50" viewBox="0 0 252 50" fill="none" xmlns="http://www.w3.org/2000/svg">
<g id="Shoffr Logo">
<path id="Vector" d="M24.0235 1.62135L26.3109 7.63588L25.9184 7.70185C25.9184 7.68041 25.3131 7.03723 24.1043 5.77397C22.8954 4.5107 21.5101 3.53439 19.9533 2.84834C18.3949 2.16228 16.6352 1.81925 14.6743 1.81925C11.3842 1.81925 8.77524 2.76258 6.84571 4.64593C4.91783 6.53094 3.95306 8.80185 3.95306 11.4603C3.95306 13.2249 4.40494 14.7669 5.30868 16.0846C6.21243 17.4023 8.10238 18.6326 10.9769 19.7738C15.9195 21.4411 19.3003 22.6928 21.1226 23.5322C22.9433 24.37 24.6996 25.79 26.39 27.7937C28.0804 29.7974 28.9265 32.3652 28.9265 35.4986C28.9265 36.8048 28.7731 38.0515 28.4696 39.2373C28.1646 40.4247 27.6747 41.5676 26.9986 42.6659C26.3224 43.7659 25.511 44.767 24.5628 45.6707C23.6145 46.5745 22.6514 47.2605 21.6701 47.7272C20.6889 48.1956 19.1419 48.5485 17.0293 48.7893C14.9151 49.0284 13.5216 49.1488 12.8454 49.1488H0V35.1589H0.489804C0.532682 39.7997 1.62278 43.037 3.75846 44.8659C5.89414 46.6965 9.21722 47.6118 13.7277 47.6118C17.8242 47.6118 20.9346 46.6421 23.0587 44.7027C25.1828 42.7632 26.2449 40.4313 26.2449 37.7085C26.2449 36.0528 25.8738 34.6411 25.1334 33.4751C24.3929 32.3091 23.3572 31.285 22.028 30.4027C20.6988 29.5204 18.1838 28.4435 14.4814 27.172C10.8004 25.879 8.21452 24.7477 6.71872 23.7796C5.22458 22.8116 3.97615 21.352 2.97346 19.4027C1.96911 17.455 1.46776 15.4678 1.46776 13.4426C1.46776 9.72044 2.74752 6.59525 5.30868 4.07037C7.87149 1.54549 11.2325 0.282227 15.395 0.282227C17.0079 0.282227 18.7511 0.466934 20.6245 0.837997C22.498 1.20906 23.5436 1.44819 23.7629 1.55704C23.8503 1.60156 23.9377 1.623 24.0251 1.623L24.0235 1.62135Z" fill="#DAB26D"/>
<path id="Vector_2" d="M69.1654 24.7868H42.7226V43.2938C42.7226 45.0353 42.805 46.1452 42.9683 46.6235C43.1316 47.1017 43.4367 47.5041 43.8836 47.8307C44.3305 48.1572 45.1089 48.3205 46.2205 48.3205V48.8103H33.7676V48.3205C36.0335 48.4738 37.1665 47.3738 37.1665 45.0205V6.31608C37.1665 4.11773 36.9868 2.72253 36.6272 2.13543C36.2677 1.54832 35.3145 1.22014 33.7676 1.15582V0.666016H46.2205V1.15582C44.8484 1.24323 43.9215 1.50544 43.4416 1.94083C42.9617 2.37621 42.7226 3.27006 42.7226 4.62073V23.4477H69.1654V6.22207C69.1654 4.26121 68.9972 2.92703 68.6591 2.21789C68.321 1.51039 67.3793 1.15582 65.8324 1.15582V0.666016H78.122V1.15582C77.1507 1.15582 76.4267 1.26961 75.9517 1.49885C75.4768 1.72808 75.1535 2.081 74.9804 2.55926C74.8072 3.03752 74.7215 4.25791 74.7215 6.21713V43.1586C74.7215 45.0535 74.8072 46.2343 74.9804 46.7026C75.1535 47.171 75.4553 47.5569 75.8874 47.862C76.3195 48.1671 77.0633 48.3188 78.122 48.3188V48.8086H65.8324V48.3188C67.1617 48.3188 68.0489 48.0467 68.4958 47.5025C68.9428 46.9583 69.1654 45.4905 69.1654 43.0959V24.7851V24.7868Z" fill="#DAB26D"/>
<path id="Vector_3" d="M137.086 1.15484V0.665039H167.549V6.32005H167.06V6.09081C167.015 6.04794 166.994 5.98197 166.994 5.89456C166.558 4.23879 165.948 3.2262 165.163 2.85514C164.378 2.48572 163.179 2.29937 161.568 2.29937H146.043V23.5127H160.496C161.734 23.5127 162.584 23.4154 163.041 23.2191C163.497 23.0229 163.758 22.5875 163.824 21.9113H164.314V26.5208H163.824C163.824 25.4092 163.107 24.8534 161.672 24.8534H146.044V44.0465C146.044 45.8523 146.321 47.0167 146.877 47.5394C147.433 48.0622 148.386 48.3228 149.737 48.3228V48.8126H137.088V48.3228C138.569 48.3228 139.507 48.0391 139.899 47.4735C140.292 46.9078 140.488 46.1129 140.488 45.0888V5.50041C140.488 3.88917 140.259 2.76279 139.802 2.11961C139.345 1.47643 138.44 1.15649 137.089 1.15649L137.086 1.15484Z" fill="#DAB26D"/>
<path id="Vector_4" d="M174 1.15484V0.665039H204.464V6.32005H203.974V6.09081C203.929 6.04794 203.908 5.98197 203.908 5.89456C203.472 4.23879 202.862 3.2262 202.077 2.85514C201.292 2.48572 200.093 2.29937 198.482 2.29937H182.957V23.5127H197.41C198.649 23.5127 199.498 23.4154 199.955 23.2191C200.411 23.0229 200.672 22.5875 200.738 21.9113H201.228V26.5208H200.738C200.738 25.4092 200.021 24.8534 198.586 24.8534H182.958V44.0465C182.958 45.8523 183.235 47.0167 183.791 47.5394C184.347 48.0622 185.3 48.3228 186.651 48.3228V48.8126H174.002V48.3228C175.483 48.3228 176.421 48.0391 176.813 47.4735C177.206 46.9078 177.402 46.1129 177.402 45.0888V5.50041C177.402 3.88917 177.173 2.76279 176.716 2.11961C176.259 1.47643 175.354 1.15649 174.003 1.15649L174 1.15484Z" fill="#DAB26D"/>
<path id="Vector_5" d="M246.057 44.6528C246.702 45.5747 247.6 46.3696 248.752 47.0375C249.903 47.7054 250.986 48.1556 252 48.3849V48.7988H238.454V48.3849C239.191 48.1556 239.64 47.7054 239.801 47.0375C239.963 46.3696 239.721 45.5747 239.076 44.6528L226.496 26.6818H219.929V44.6528C219.929 45.5747 220.251 46.3696 220.897 47.0375C221.542 47.7054 222.302 48.1556 223.178 48.3849V48.7988H210.875V48.3849C211.797 48.1556 212.579 47.7054 213.225 47.0375C213.87 46.3696 214.193 45.5747 214.193 44.6528V4.63399C214.193 3.71211 213.87 2.90566 213.225 2.21466C212.58 1.52366 211.797 1.06354 210.875 0.832654V0.486328H234.099C235.848 0.486328 237.611 0.786477 239.386 1.38513C241.159 1.98378 242.76 2.8364 244.19 3.94299C245.618 5.04959 246.782 6.4085 247.681 8.02139C248.58 9.63428 249.029 11.4781 249.029 13.5511C249.029 15.6241 248.58 17.4794 247.681 19.1154C246.782 20.7513 245.618 22.1218 244.19 23.2284C242.762 24.335 241.16 25.1876 239.386 25.7863C237.611 26.3849 235.848 26.6851 234.099 26.6851H233.408L246.057 44.6561V44.6528ZM231.265 25.2998C232.555 25.2998 233.858 25.0705 235.171 24.6088C236.483 24.1486 237.659 23.4345 238.695 22.4665C239.732 21.4984 240.583 20.278 241.253 18.8037C241.921 17.3293 242.255 15.5795 242.255 13.5511C242.255 11.5226 241.921 9.84208 241.253 8.36772C240.585 6.89336 239.732 5.67297 238.695 4.70491C237.658 3.73685 236.483 3.02275 235.171 2.56264C233.858 2.10252 232.555 1.87163 231.265 1.87163H219.931V25.3031H231.265V25.2998Z" fill="#DAB26D"/>
<path id="Vector_6" d="M108.007 3.32328C109.523 3.32328 111.037 3.3002 112.552 3.3002C113.898 3.3002 115.26 3.27546 116.596 3.44862L116.157 3.38925C117.186 3.52778 118.192 3.7867 119.152 4.18745L118.758 4.02088C119.599 4.3771 120.387 4.83722 121.111 5.39464L120.778 5.13737C121.54 5.73107 122.216 6.42208 122.808 7.18564L122.551 6.85251C123.15 7.63257 123.639 8.48519 124.146 9.32792C124.738 10.3141 125.325 11.302 125.909 12.2948C127.058 14.249 128.194 16.2099 129.332 18.1708C129.957 19.2477 130.658 20.3081 131.15 21.4526L130.983 21.0585C131.33 21.8847 131.559 22.7472 131.686 23.6345L131.626 23.1958C131.79 24.4129 131.755 25.6399 131.6 26.857L131.659 26.4183C131.549 27.2313 131.315 28.013 130.998 28.77L131.165 28.3758C130.772 29.2961 130.274 30.1636 129.768 31.0261C129.187 32.0123 128.607 32.9968 128.03 33.9847C126.859 35.9851 125.691 37.9889 124.518 39.9893C123.917 41.0151 123.359 42.0904 122.635 43.037L122.892 42.7038C122.343 43.4113 121.705 44.038 120.998 44.5872L121.331 44.3299C120.425 45.0209 119.429 45.5701 118.382 46.0154L118.776 45.8488C117.935 46.2017 117.059 46.431 116.156 46.5563L116.594 46.4969C115.522 46.6371 114.445 46.6107 113.367 46.6058C112.222 46.6008 111.079 46.5992 109.935 46.5975C107.631 46.5959 105.325 46.5975 103.022 46.6008C101.834 46.6008 100.635 46.6586 99.456 46.5052L99.8947 46.5646C98.9382 46.431 98.0081 46.1737 97.1175 45.801L97.5117 45.9676C96.4644 45.5223 95.4931 44.9286 94.5893 44.2376L94.9225 44.4948C94.2892 44.005 93.7285 43.4559 93.2354 42.8242L93.4926 43.1574C92.8973 42.3839 92.4042 41.5412 91.9144 40.6968C91.3421 39.7123 90.7699 38.7277 90.1959 37.7448C89.0316 35.746 87.864 33.7489 86.6948 31.7517C86.0664 30.6764 85.3589 29.616 84.8658 28.4699L85.0324 28.864C84.6745 28.013 84.442 27.1225 84.3166 26.2072L84.376 26.6459C84.2342 25.5442 84.2292 24.4145 84.376 23.3145L84.3166 23.7532C84.4519 22.8016 84.7223 21.8814 85.0951 20.9942L84.9285 21.3883C85.3441 20.4153 85.8883 19.5165 86.4243 18.6062C87.0064 17.6183 87.5853 16.6272 88.1625 15.636C89.2988 13.6817 90.4285 11.7225 91.5697 9.77154C92.1519 8.77544 92.6977 7.74306 93.4019 6.82612L93.1447 7.15926C93.6988 6.44846 94.3354 5.81353 95.0478 5.26271L94.7147 5.51998C95.4997 4.92133 96.3605 4.43647 97.2676 4.04892L96.8734 4.21549C97.825 3.81639 98.8426 3.47831 99.8667 3.33648L99.428 3.39585C100.112 3.31009 100.8 3.32163 101.489 3.32328C102.213 3.32493 102.937 3.32658 103.661 3.32658C105.109 3.32658 106.557 3.32658 108.004 3.32658C108.866 3.32658 109.692 2.56796 109.653 1.67741C109.613 0.786858 108.929 0.0282392 108.004 0.0282392C106.556 0.0282392 105.108 0.0298883 103.661 0.0282392C102.954 0.0282392 102.248 0.0282392 101.541 0.0249408C100.833 0.0216425 100.193 0.0100983 99.522 0.0859602C97.0433 0.369618 94.6487 1.42674 92.6878 2.95222C91.7709 3.66631 91.0073 4.52058 90.3312 5.46226C89.5676 6.52433 88.9541 7.70843 88.2961 8.83811C86.8646 11.2937 85.448 13.7592 84.0083 16.2099C83.3469 17.3363 82.6378 18.4412 82.1167 19.6418C81.5164 21.0271 81.1255 22.4223 81.0134 23.9346C80.9144 25.2672 81.0051 26.6228 81.2838 27.9306C81.5774 29.306 82.1777 30.561 82.8835 31.7665C84.3232 34.2271 85.7613 36.6877 87.1978 39.1499C87.8871 40.3307 88.5715 41.5131 89.2609 42.694C89.9502 43.8748 90.6462 44.9698 91.5681 45.9263C92.4421 46.8334 93.5306 47.5986 94.6273 48.2154C95.724 48.8322 96.9147 49.317 98.14 49.5875C99.4923 49.886 100.838 49.9008 102.213 49.8992C103.589 49.8975 105.073 49.8959 106.503 49.8942C107.933 49.8926 109.363 49.8942 110.792 49.8942C112.222 49.8942 113.631 49.9289 115.047 49.9041C116.464 49.8794 117.907 49.6864 119.235 49.1917C120.377 48.7662 121.496 48.2236 122.502 47.531C123.508 46.8383 124.423 46.0467 125.175 45.0935C126.042 43.9935 126.709 42.7698 127.414 41.5643C128.857 39.1004 130.294 36.6316 131.742 34.1694C132.405 33.0397 133.109 31.9249 133.686 30.7474C134.003 30.1025 134.29 29.4379 134.509 28.7535C134.729 28.0691 134.846 27.3253 134.93 26.5898C135.238 23.8934 134.832 21.1244 133.48 18.7463C132.073 16.2709 130.625 13.8186 129.186 11.3613C128.47 10.1393 127.748 8.91892 127.019 7.70513C126.347 6.58699 125.683 5.48865 124.845 4.48595C123.42 2.78071 121.538 1.52569 119.451 0.785209C117.11 -0.0459735 114.595 -0.0030951 112.148 0.00185241C110.768 0.00515076 109.387 0.0232916 108.007 0.0232916C107.144 0.0232916 106.318 0.781911 106.358 1.67246C106.397 2.56302 107.082 3.32163 108.007 3.32163V3.32328Z" fill="#DAB26D"/>
<path id="Subtract" fill-rule="evenodd" clip-rule="evenodd" d="M130.454 13.6748L130.76 14.4011C131.125 15.2656 131.222 15.9731 131.083 16.6055L130.991 17.0217L130.599 17.1877C123.36 20.2489 116.483 23.2199 112.769 25.5771C111.173 26.7992 110.164 28.5827 109.796 31.0314C109.527 35.8605 109.7 40.6521 109.874 45.4549L109.874 45.4575L109.874 45.4579C109.916 46.6241 109.958 47.791 109.994 48.9593L110.02 49.8092H105.328L105.344 48.9687C105.389 46.6102 105.495 44.3292 105.598 42.1274L105.598 42.1273V42.1272C105.781 38.1795 105.953 34.4862 105.743 31.057C105.44 28.6567 104.394 26.886 102.756 25.5715C99.5334 23.5166 93.9668 21.1083 88.3182 18.6644L88.3181 18.6644C87.1787 18.1714 86.0358 17.677 84.9083 17.1837L83.8711 16.73L86.2673 14.0205H86.7953L103.035 20.3381L103.059 20.3491C103.263 20.4439 103.503 20.4453 103.885 20.2696C105.074 19.4425 106.343 18.9487 107.684 18.9248C109.052 18.9005 110.407 19.3668 111.738 20.3127L111.74 20.3138L111.742 20.3149C111.905 20.4324 112.064 20.4617 112.319 20.3726L112.323 20.3709L130.454 13.6748ZM88.4518 16.028C88.6303 16.0524 88.8701 16.1067 89.1662 16.1874L89.1726 16.1891L89.1789 16.1912C89.6948 16.3651 90.2133 16.5386 90.7321 16.7122L90.7321 16.7122C95.1484 18.1903 99.5916 19.6773 102.74 21.4509L102.815 21.4935L102.81 21.5397C102.976 21.9978 102.889 22.3534 102.601 22.6049C102.314 22.8561 101.848 22.9838 101.322 23.0228L101.269 23.0268L101.22 23.0073C96.7291 21.2184 92.5523 19.1304 88.6221 16.8069L88.618 16.8045L88.6141 16.8019C88.3846 16.6496 88.2126 16.5211 88.1054 16.4182C88.0523 16.3673 88.008 16.3161 87.9835 16.2667C87.9593 16.2181 87.9449 16.1507 87.9995 16.0924C88.0521 16.0361 88.1404 16.0192 88.2088 16.0146C88.2801 16.0098 88.3633 16.0159 88.4518 16.028ZM108.805 30.1012C108.468 29.6367 108.123 29.4628 107.792 29.5347C107.466 29.6055 107.179 29.9093 106.945 30.3233L106.921 30.3654L106.92 30.4196C106.758 35.3925 106.974 40.3051 107.487 45.1702L107.488 45.1752L107.488 45.1802C107.533 45.4754 107.578 45.7064 107.626 45.8659C107.65 45.9448 107.677 46.0165 107.711 46.0705C107.743 46.1237 107.796 46.1814 107.867 46.1753C107.936 46.1694 107.984 46.1067 108.014 46.0526C108.045 45.996 108.071 45.9222 108.094 45.8399C108.141 45.6739 108.185 45.4364 108.227 45.1337L108.228 45.1272L108.229 45.1207C108.275 44.5634 108.323 44.0043 108.371 43.4448L108.371 43.4445L108.371 43.4441L108.371 43.4438C108.765 38.8257 109.161 34.183 108.854 30.3846H109.011L108.805 30.1012ZM114.28 22.8885C113.724 22.7857 113.384 22.584 113.24 22.3122C113.09 22.0292 113.165 21.6919 113.367 21.3564L113.388 21.3223L113.433 21.301C117.58 19.3574 121.921 17.7338 126.411 16.3613L126.416 16.3599L126.421 16.3586C126.702 16.2858 126.929 16.2374 127.096 16.2171C127.179 16.2071 127.258 16.2025 127.325 16.209C127.392 16.2154 127.475 16.2358 127.516 16.2941C127.555 16.3504 127.533 16.4114 127.506 16.4547C127.478 16.5 127.432 16.5477 127.376 16.5961C127.264 16.6937 127.09 16.8154 126.858 16.9599L126.853 16.9631L126.848 16.966C126.405 17.204 125.962 17.4437 125.519 17.6836L125.517 17.6843C121.759 19.7168 117.98 21.7608 114.485 22.8974L114.29 22.9607L114.28 22.8885ZM107.799 20.4309C105.696 20.4309 103.991 22.1357 103.991 24.2388C103.991 26.3419 105.696 28.0467 107.799 28.0467C109.902 28.0467 111.607 26.3419 111.607 24.2388C111.607 22.1357 109.902 20.4309 107.799 20.4309Z" fill="#DAB26D"/>
</g>
</svg>
